classDiagram

class app_data_t {
  +equipment_list_t       equipments
  +hashmap_t              id_index
  +hashmap_t              ip_index
  +hashmap_t              mac_index
  +incident_queue_t       incidents_pending;
  +incident_list_t        incidents_history;
  +sensor_array_t         sensors
  +technician_list_t      technicians
  +hashmap_t              username_index
  +technician_t           *current_user
}


class equipment_t {
  +int                     id  
  +char                    name[100]
  +char                    type[100]
  +char                    vendor[100]
  +char                    model[100]
  +char                    ip_address[16]
  +char                    mac_address[18]
  +char                    location[100]
  +equipment_status_t      status
  +configuration_stack_t   configs
  +time_t                  last_check
}

class equipment_node_t {
  +equipment_t           data
  +equipment_node_t      *next
  +equipment_node_t      *previous
}

class equipment_list_t {
  +equipment_node_t      *head 
  +equipment_node_t      *tail 
  +int                   count 
  +int                   next_id
}



class incident_t {
  +int                      number
  +char                     source_id[30]
  incident_source_t         source_type;
  +char                     type[100]
  +char                     description[200]
  +incident_priority_t      priority 
  +incident_status_t        status
  +time_t                   created_at 
  +time_t                   concluded_at
  +char                     technician_name[100]
}

class incident_node_t {
  +incident_t           data
  +incident_node_t      *next
}

class incident_queue_t {
  +incident_node_t      *front
  +incident_node_t      *rear
  +int                  count 
  +int                  next_number
}

class incident_list_t {
  +incident_node_t      *head 
  int                   count;
}



class configuration_t {
  +int                number
  +char               command[300]
  +char               technician_name[100]
  +time_t             operated_at
}

class configuration_node_t {
  +config_t           data 
  +config_node_t      *next
}

class configuration_stack_t {
  +config_node_t      *top 
  +int                next_number;
  +int                count
}

class sensor_t {
  +char                 code[30]
  +char                 type[100]
  +float                value
  +char                 unit[10]
  +sensor_status_t      status
  +time_t               read_at
}

class sensor_array_t {
  +sensor_t      *sensors
  +int           count
}


class technician_t {
  +int                    id
  +char                   name[100]
  +char                   username[30]
  +char                   password_hash[128]
  +char                   avatar_path[100]
  +technician_role_t      role
  +bool                   is_active
}

class technician_node_t {
  +technician_t           data
  +technician_node_t      *next
  +technician_node_t      *previous
}

class technician_list_t {
  +technician_node_t      *head 
  +int                    count 
  +int                    next_id 
}



class hashmap_t {
  +hash_bucket_t      *buckets[61]
  +int                count
}

class hash_bucket_t {
  +char               key[30]
  +void               *reference
  +hash_bucket_t      *next
}



class equipment_status_t {
  <<enumeration>>
  STATUS_OPERATIONAL 
  STATUS_FAILED 
  STATUS_MAINTENANCE 
  STATUS_DISABLED
}

class incident_priority_t {
  <<enumeration>> 
  PRIORITY_LOW 
  PRIORITY_MEDIUM
  PRIORITY_HIGH
  PRIORITY_CRITICAL
}

class incident_status_t {
  <<enumeration>>
  INCIDENT_PENDING
  INCIDENT_IN_PROGRESS 
  INCIDENT_CONCLUDED
}

class incident_source_t {
  <<enumeration>>
  SOURCE_EQUIPMENT
  SOURCE_SENSOR
}

class sensor_status_t {
  <<enumeration>>
  SENSOR_OK
  SENSOR_WARNING
  SENSOR_CRITICAL
  SENSOR_NET_FAILURE
}

class technician_role_t {
  <<enumeration>>
  ROLE_ADMIN
  ROLE_TECHNICIAN
}



app_data_t *-- equipment_list_t      : equipments 
app_data_t *-- hashmap_t             : id_index
app_data_t *-- hashmap_t             : ip_index
app_data_t *-- hashmap_t             : mac_index
app_data_t *-- incident_queue_t      : incidents_pending
app_data_t *-- incident_list_t       : incidents_history
app_data_t *-- sensor_array_t        : sensors 
app_data_t *-- technician_list_t     : technicians 
app_data_t *-- hashmap_t             : username_index
app_data_t --> technician_t          : *current_user



equipment_t --> equipment_status_t         : status 
equipment_t *-- configuration_stack_t      : configs 
equipment_node_t *-- equipment_t           : data
equipment_node_t --> equipment_node_t      : next / previous
equipment_list_t *-- equipment_node_t      : head / tail



incident_t --> incident_priority_t       : priority
incident_t --> incident_status_t         : status 
incident_t --> incident_source_t         : source_type
incident_node_t *-- incident_t           : data 
incident_node_t --> incident_node_t      : next 
incident_queue_t *-- incident_node_t     : front / rear
incident_list_t *-- incident_node_t      : head



configuration_node_t *-- configuration_t           : data  
configuration_node_t --> configuration_node_t      : next
configuration_stack_t *-- configuration_node_t     : top 



sensor_t --> sensor_status_t         : status 
sensor_array_t *-- sensor_t          : sensors



technician_t --> technician_role_t           : role 
technician_node_t *-- technician_t           : data 
technician_node_t --> technician_node_t      : next
technician_node_t --> technician_node_t      : previous
technician_list_t *-- technician_node_t      : head 



hashmap_t *-- hash_bucket_t             : *buckets[61]
hash_bucket_t --> hash_bucket_t         : next 
hash_bucket_t --> equipment_node_t      : reference (id/ip/mac)
hash_bucket_t --> technician_node_t     : reference (username)
